<svg width="20" height="20" viewBox="0 0 20 20" fill="none" xmlns="http://www.w3.org/2000/svg">
<mask id="mask0_1882_45" style="mask-type:alpha" maskUnits="userSpaceOnUse" x="0" y="0" width="20" height="20">
<circle cx="10" cy="10" r="10" fill="#D9D9D9"/>
</mask>
<g mask="url(#mask0_1882_45)">
<rect width="20" height="20" rx="10" fill="#FF0000"/>
<path d="M15.5626 7.24914C15.4321 6.75823 15.0458 6.37095 14.5543 6.23823C13.6657 6.00005 10.1002 6.00005 10.1002 6.00005C10.1002 6.00005 6.53657 6.00005 5.64612 6.23823C5.15646 6.36914 4.77017 6.75641 4.63778 7.24914C4.4002 8.14005 4.4002 10 4.4002 10C4.4002 10 4.4002 11.86 4.63778 12.751C4.76836 13.2419 5.15464 13.6291 5.64612 13.7619C6.53657 14 10.1002 14 10.1002 14C10.1002 14 13.6657 14 14.5543 13.7619C15.044 13.631 15.4302 13.2437 15.5626 12.751C15.8002 11.86 15.8002 10 15.8002 10C15.8002 10 15.8002 8.14005 15.5626 7.24914Z" fill="white"/>
<path d="M8.96129 11.7146L11.9228 10L8.96129 8.2855V11.7146Z" fill="#FF0000"/>
</g>
</svg>
